<?xml version="1.0" encoding="UTF-8"?>
<svg xmlns="http://www.w3.org/2000/svg" xmlns:xlink="http://www.w3.org/1999/xlink" width="375pt" height="375pt" viewBox="0 0 375 375" version="1.1">
<defs>
<filter id="alpha" filterUnits="objectBoundingBox" x="0%" y="0%" width="100%" height="100%">
  <feColorMatrix type="matrix" in="SourceGraphic" values="0 0 0 0 1 0 0 0 0 1 0 0 0 0 1 0 0 0 1 0"/>
</filter>
<mask id="mask0">
  <g filter="url(#alpha)">
<rect x="0" y="0" width="375" height="375" style="fill:rgb(0%,0%,0%);fill-opacity:0.6;stroke:none;"/>
  </g>
</mask>
<clipPath id="clip1">
  <rect width="375" height="375"/>
</clipPath>
<g id="surface6" clip-path="url(#clip1)">
<path style=" stroke:none;fill-rule:nonzero;fill:rgb(94.117647%,94.117647%,94.117647%);fill-opacity:1;" d="M 53.429688 231.050781 L 39.457031 231.050781 L 41.671875 62.664062 L 55.648438 62.664062 Z M 53.429688 231.050781 "/>
<path style=" stroke:none;fill-rule:nonzero;fill:rgb(90.196078%,90.196078%,90.196078%);fill-opacity:1;" d="M 58.875 231.050781 L 47.984375 231.050781 L 50.203125 62.664062 L 61.085938 62.664062 Z M 58.875 231.050781 "/>
<path style=" stroke:none;fill-rule:nonzero;fill:rgb(94.117647%,94.117647%,94.117647%);fill-opacity:1;" d="M 67.402344 231.050781 L 53.429688 231.050781 L 55.648438 62.664062 L 69.621094 62.664062 Z M 67.402344 231.050781 "/>
<path style=" stroke:none;fill-rule:nonzero;fill:rgb(90.196078%,90.196078%,90.196078%);fill-opacity:1;" d="M 72.847656 231.050781 L 61.957031 231.050781 L 64.175781 62.664062 L 75.066406 62.664062 Z M 72.847656 231.050781 "/>
<path style=" stroke:none;fill-rule:nonzero;fill:rgb(94.117647%,94.117647%,94.117647%);fill-opacity:1;" d="M 81.375 231.050781 L 67.402344 231.050781 L 69.621094 62.664062 L 83.59375 62.664062 Z M 81.375 231.050781 "/>
</g>
<mask id="mask1">
  <g filter="url(#alpha)">
<rect x="0" y="0" width="375" height="375" style="fill:rgb(0%,0%,0%);fill-opacity:0.6;stroke:none;"/>
  </g>
</mask>
<clipPath id="clip2">
  <rect width="375" height="375"/>
</clipPath>
<g id="surface9" clip-path="url(#clip2)">
<path style=" stroke:none;fill-rule:nonzero;fill:rgb(94.117647%,94.117647%,94.117647%);fill-opacity:1;" d="M 161.046875 231.050781 L 168.945312 231.050781 L 170.003906 62.664062 L 162.105469 62.664062 Z M 161.046875 231.050781 "/>
<path style=" stroke:none;fill-rule:nonzero;fill:rgb(90.196078%,90.196078%,90.196078%);fill-opacity:1;" d="M 157.972656 231.050781 L 164.121094 231.050781 L 165.1875 62.664062 L 159.03125 62.664062 Z M 157.972656 231.050781 "/>
<path style=" stroke:none;fill-rule:nonzero;fill:rgb(94.117647%,94.117647%,94.117647%);fill-opacity:1;" d="M 153.148438 231.050781 L 161.046875 231.050781 L 162.105469 62.664062 L 154.207031 62.664062 Z M 153.148438 231.050781 "/>
<path style=" stroke:none;fill-rule:nonzero;fill:rgb(90.196078%,90.196078%,90.196078%);fill-opacity:1;" d="M 150.074219 231.050781 L 156.226562 231.050781 L 157.289062 62.664062 L 151.132812 62.664062 Z M 150.074219 231.050781 "/>
<path style=" stroke:none;fill-rule:nonzero;fill:rgb(94.117647%,94.117647%,94.117647%);fill-opacity:1;" d="M 145.253906 231.050781 L 153.148438 231.050781 L 154.207031 62.664062 L 146.308594 62.664062 Z M 145.253906 231.050781 "/>
</g>
<mask id="mask2">
  <g filter="url(#alpha)">
<rect x="0" y="0" width="375" height="375" style="fill:rgb(0%,0%,0%);fill-opacity:0.2;stroke:none;"/>
  </g>
</mask>
<clipPath id="clip3">
  <rect width="375" height="375"/>
</clipPath>
<g id="surface12" clip-path="url(#clip3)">
<path style=" stroke:none;fill-rule:nonzero;fill:rgb(0%,0%,0%);fill-opacity:1;" d="M 212.535156 112.449219 C 214.613281 111.140625 216.878906 111.863281 218.804688 114.285156 C 219.203125 114.980469 219.46875 115.742188 219.59375 116.535156 C 217.71875 119.933594 212.65625 125.691406 212.65625 125.691406 L 209.753906 121.605469 C 209.535156 119.191406 211.191406 113.25 212.535156 112.449219 Z M 212.535156 112.449219 "/>
</g>
<mask id="mask3">
  <g filter="url(#alpha)">
<rect x="0" y="0" width="375" height="375" style="fill:rgb(0%,0%,0%);fill-opacity:0.101961;stroke:none;"/>
  </g>
</mask>
<clipPath id="clip4">
  <rect width="375" height="375"/>
</clipPath>
<g id="surface15" clip-path="url(#clip4)">
<path style=" stroke:none;fill-rule:nonzero;fill:rgb(0%,0%,0%);fill-opacity:1;" d="M 201.113281 120.984375 L 197.015625 117.621094 L 169.117188 159.539062 L 173.25 162.898438 C 177.960938 166.753906 188.015625 160.5 195.75 148.921875 C 203.484375 137.339844 205.824219 124.835938 201.113281 120.984375 Z M 201.113281 120.984375 "/>
</g>
<mask id="mask4">
  <g filter="url(#alpha)">
<rect x="0" y="0" width="375" height="375" style="fill:rgb(0%,0%,0%);fill-opacity:0.101961;stroke:none;"/>
  </g>
</mask>
<clipPath id="clip5">
  <rect width="375" height="375"/>
</clipPath>
<g id="surface18" clip-path="url(#clip5)">
<path style=" stroke:none;fill-rule:nonzero;fill:rgb(0%,0%,0%);fill-opacity:1;" d="M 195.789062 131.535156 C 196.34375 127.859375 195.789062 124.914062 194.046875 123.464844 C 190.214844 120.324219 182.046875 125.421875 175.738281 134.851562 C 173.089844 138.734375 171.132812 143.046875 169.957031 147.601562 C 170.601562 143.296875 172.738281 137.992188 176.121094 132.898438 C 182.398438 123.472656 190.597656 118.378906 194.429688 121.515625 C 196.5 123.203125 196.875 126.960938 195.789062 131.535156 Z M 195.789062 131.535156 "/>
</g>
<mask id="mask5">
  <g filter="url(#alpha)">
<rect x="0" y="0" width="375" height="375" style="fill:rgb(0%,0%,0%);fill-opacity:0.2;stroke:none;"/>
  </g>
</mask>
<clipPath id="clip6">
  <rect width="375" height="375"/>
</clipPath>
<g id="surface21" clip-path="url(#clip6)">
<path style=" stroke:none;fill-rule:nonzero;fill:rgb(0%,0%,0%);fill-opacity:1;" d="M 240.660156 257.289062 L 242.308594 264.847656 L 248.746094 264.847656 L 246.960938 256.679688 Z M 240.660156 257.289062 "/>
</g>
<mask id="mask6">
  <g filter="url(#alpha)">
<rect x="0" y="0" width="375" height="375" style="fill:rgb(0%,0%,0%);fill-opacity:0.2;stroke:none;"/>
  </g>
</mask>
<clipPath id="clip7">
  <rect width="375" height="375"/>
</clipPath>
<g id="surface24" clip-path="url(#clip7)">
<path style=" stroke:none;fill-rule:nonzero;fill:rgb(0%,0%,0%);fill-opacity:1;" d="M 279.609375 248.371094 L 273.75 250.664062 L 276.667969 257.835938 L 282.515625 255.539062 Z M 279.609375 248.371094 "/>
</g>
<mask id="mask7">
  <g filter="url(#alpha)">
<rect x="0" y="0" width="375" height="375" style="fill:rgb(0%,0%,0%);fill-opacity:0.2;stroke:none;"/>
  </g>
</mask>
<clipPath id="clip8">
  <rect width="375" height="375"/>
</clipPath>
<g id="surface27" clip-path="url(#clip8)">
<path style=" stroke:none;fill-rule:nonzero;fill:rgb(0%,0%,0%);fill-opacity:1;" d="M 226.980469 89.46875 C 227.527344 91.652344 227.601562 93.929688 227.203125 96.148438 C 226.921875 97.648438 225.285156 98.789062 223.453125 99.441406 C 223.207031 98.402344 222.796875 97.402344 222.238281 96.488281 Z M 226.980469 89.46875 "/>
</g>
<mask id="mask8">
  <g filter="url(#alpha)">
<rect x="0" y="0" width="375" height="375" style="fill:rgb(0%,0%,0%);fill-opacity:0.2;stroke:none;"/>
  </g>
</mask>
<clipPath id="clip9">
  <rect width="375" height="375"/>
</clipPath>
<g id="surface30" clip-path="url(#clip9)">
<path style=" stroke:none;fill-rule:nonzero;fill:rgb(0%,0%,0%);fill-opacity:1;" d="M 236.773438 160.777344 C 237.179688 156.203125 240.628906 157.078125 241.402344 163.273438 C 241.066406 173.023438 240.824219 184.34375 241.019531 194.25 C 237.300781 186.984375 235.851562 171.1875 236.773438 160.777344 Z M 236.773438 160.777344 "/>
</g>
<mask id="mask9">
  <g filter="url(#alpha)">
<rect x="0" y="0" width="375" height="375" style="fill:rgb(0%,0%,0%);fill-opacity:0.501961;stroke:none;"/>
  </g>
</mask>
<clipPath id="clip10">
  <rect width="375" height="375"/>
</clipPath>
<g id="surface33" clip-path="url(#clip10)">
<path style=" stroke:none;fill-rule:nonzero;fill:rgb(0%,0%,0%);fill-opacity:1;" d="M 236.398438 292.351562 L 264.9375 292.351562 L 264.9375 296.871094 L 236.398438 296.871094 Z M 236.398438 292.351562 "/>
</g>
<mask id="mask10">
  <g filter="url(#alpha)">
<rect x="0" y="0" width="375" height="375" style="fill:rgb(0%,0%,0%);fill-opacity:0.501961;stroke:none;"/>
  </g>
</mask>
<clipPath id="clip11">
  <rect width="375" height="375"/>
</clipPath>
<g id="surface36" clip-path="url(#clip11)">
<path style=" stroke:none;fill-rule:nonzero;fill:rgb(0%,0%,0%);fill-opacity:1;" d="M 240.554688 280.875 L 240.1875 283.183594 L 235.65625 283.183594 L 236.03125 280.875 Z M 240.554688 280.875 "/>
</g>
<mask id="mask11">
  <g filter="url(#alpha)">
<rect x="0" y="0" width="375" height="375" style="fill:rgb(0%,0%,0%);fill-opacity:0.501961;stroke:none;"/>
  </g>
</mask>
<clipPath id="clip12">
  <rect width="375" height="375"/>
</clipPath>
<g id="surface39" clip-path="url(#clip12)">
<path style=" stroke:none;fill-rule:nonzero;fill:rgb(0%,0%,0%);fill-opacity:1;" d="M 264.9375 283.183594 L 264.570312 280.875 L 260.039062 280.875 L 260.40625 283.183594 Z M 264.9375 283.183594 "/>
</g>
<mask id="mask12">
  <g filter="url(#alpha)">
<rect x="0" y="0" width="375" height="375" style="fill:rgb(0%,0%,0%);fill-opacity:0.501961;stroke:none;"/>
  </g>
</mask>
<clipPath id="clip13">
  <rect width="375" height="375"/>
</clipPath>
<g id="surface42" clip-path="url(#clip13)">
<path style=" stroke:none;fill-rule:nonzero;fill:rgb(0%,0%,0%);fill-opacity:1;" d="M 254.746094 310.949219 L 249.945312 280.875 L 245.445312 280.875 L 250.273438 311.25 C 250.355469 311.765625 250.800781 312.148438 251.324219 312.148438 L 253.695312 312.148438 C 254 312.148438 254.289062 312.015625 254.488281 311.785156 C 254.691406 311.558594 254.785156 311.253906 254.746094 310.949219 Z M 254.746094 310.949219 "/>
</g>
<mask id="mask13">
  <g filter="url(#alpha)">
<rect x="0" y="0" width="375" height="375" style="fill:rgb(0%,0%,0%);fill-opacity:0.501961;stroke:none;"/>
  </g>
</mask>
<clipPath id="clip14">
  <rect width="375" height="375"/>
</clipPath>
<g id="surface45" clip-path="url(#clip14)">
<path style=" stroke:none;fill-rule:nonzero;fill:rgb(0%,0%,0%);fill-opacity:1;" d="M 236.03125 276.351562 L 263.503906 276.351562 C 264.09375 276.351562 264.570312 276.828125 264.570312 277.417969 L 264.570312 280.882812 L 236.070312 280.882812 L 236.070312 276.382812 Z M 236.03125 276.351562 "/>
</g>
<mask id="mask14">
  <g filter="url(#alpha)">
<rect x="0" y="0" width="375" height="375" style="fill:rgb(0%,0%,0%);fill-opacity:0.101961;stroke:none;"/>
  </g>
</mask>
<clipPath id="clip15">
  <rect width="375" height="375"/>
</clipPath>
<g id="surface48" clip-path="url(#clip15)">
<path style=" stroke:none;fill-rule:nonzero;fill:rgb(0%,0%,0%);fill-opacity:1;" d="M 109.335938 308.046875 L 115.34375 297.023438 L 93.855469 278.191406 L 92.175781 308.046875 Z M 109.335938 308.046875 "/>
</g>
<mask id="mask15">
  <g filter="url(#alpha)">
<rect x="0" y="0" width="375" height="375" style="fill:rgb(0%,0%,0%);fill-opacity:0.2;stroke:none;"/>
  </g>
</mask>
<clipPath id="clip16">
  <rect width="375" height="375"/>
</clipPath>
<g id="surface51" clip-path="url(#clip16)">
<path style=" stroke:none;fill-rule:nonzero;fill:rgb(0%,0%,0%);fill-opacity:1;" d="M 189.128906 190.703125 C 195.914062 184.035156 202.835938 181.898438 204.710938 183.015625 C 206.585938 184.132812 200.566406 196.988281 200.566406 196.988281 C 200.566406 196.988281 192.425781 198.15625 189.128906 190.703125 Z M 189.128906 190.703125 "/>
</g>
<mask id="mask16">
  <g filter="url(#alpha)">
<rect x="0" y="0" width="375" height="375" style="fill:rgb(0%,0%,0%);fill-opacity:0.101961;stroke:none;"/>
  </g>
</mask>
<clipPath id="clip17">
  <rect width="375" height="375"/>
</clipPath>
<g id="surface54" clip-path="url(#clip17)">
<path style=" stroke:none;fill-rule:nonzero;fill:rgb(0%,0%,0%);fill-opacity:1;" d="M 137.0625 297.839844 L 134.128906 303.976562 C 136.25 304.320312 138.402344 304.570312 140.585938 304.726562 Z M 137.0625 297.839844 "/>
</g>
<mask id="mask17">
  <g filter="url(#alpha)">
<rect x="0" y="0" width="375" height="375" style="fill:rgb(0%,0%,0%);fill-opacity:0.2;stroke:none;"/>
  </g>
</mask>
<clipPath id="clip18">
  <rect width="375" height="375"/>
</clipPath>
<g id="surface57" clip-path="url(#clip18)">
<path style=" stroke:none;fill-rule:nonzero;fill:rgb(0%,0%,0%);fill-opacity:1;" d="M 190.335938 247.304688 C 190.335938 257.386719 181.425781 265.550781 170.46875 265.550781 C 159.511719 265.550781 150.636719 257.386719 150.636719 247.304688 C 150.636719 237.226562 159.515625 229.058594 170.46875 229.058594 C 181.417969 229.058594 190.335938 237.226562 190.335938 247.304688 Z M 190.335938 247.304688 "/>
</g>
<mask id="mask18">
  <g filter="url(#alpha)">
<rect x="0" y="0" width="375" height="375" style="fill:rgb(0%,0%,0%);fill-opacity:0.2;stroke:none;"/>
  </g>
</mask>
<clipPath id="clip19">
  <rect width="375" height="375"/>
</clipPath>
<g id="surface60" clip-path="url(#clip19)">
<path style=" stroke:none;fill-rule:nonzero;fill:rgb(0%,0%,0%);fill-opacity:1;" d="M 167.25 247.003906 C 167.25 243.542969 165.742188 240.734375 163.882812 240.734375 C 162.023438 240.734375 160.515625 243.542969 160.515625 247.003906 C 160.515625 250.46875 162.023438 253.273438 163.882812 253.273438 C 165.742188 253.273438 167.25 250.46875 167.25 247.003906 Z M 167.25 247.003906 "/>
</g>
<mask id="mask19">
  <g filter="url(#alpha)">
<rect x="0" y="0" width="375" height="375" style="fill:rgb(0%,0%,0%);fill-opacity:0.4;stroke:none;"/>
  </g>
</mask>
<clipPath id="clip20">
  <rect width="375" height="375"/>
</clipPath>
<g id="surface63" clip-path="url(#clip20)">
<path style=" stroke:none;fill-rule:nonzero;fill:rgb(0%,0%,0%);fill-opacity:1;" d="M 139.800781 213.269531 C 140.765625 216.21875 139.875 219.433594 137.8125 220.449219 C 135.75 221.460938 133.3125 219.886719 132.324219 216.9375 C 131.332031 213.988281 132.238281 210.773438 134.300781 209.761719 C 136.363281 208.746094 138.832031 210.316406 139.800781 213.269531 Z M 139.800781 213.269531 "/>
</g>
<mask id="mask20">
  <g filter="url(#alpha)">
<rect x="0" y="0" width="375" height="375" style="fill:rgb(0%,0%,0%);fill-opacity:0.4;stroke:none;"/>
  </g>
</mask>
<clipPath id="clip21">
  <rect width="375" height="375"/>
</clipPath>
<g id="surface66" clip-path="url(#clip21)">
<path style=" stroke:none;fill-rule:nonzero;fill:rgb(0%,0%,0%);fill-opacity:1;" d="M 192 213.40625 C 191.25 216.351562 192.171875 219.53125 194.03125 220.5 C 195.890625 221.46875 197.992188 219.863281 198.726562 216.90625 C 199.460938 213.953125 198.554688 210.78125 196.695312 209.8125 C 194.835938 208.84375 192.75 210.449219 192 213.40625 Z M 192 213.40625 "/>
</g>
<mask id="mask21">
  <g filter="url(#alpha)">
<rect x="0" y="0" width="375" height="375" style="fill:rgb(0%,0%,0%);fill-opacity:0.2;stroke:none;"/>
  </g>
</mask>
<clipPath id="clip22">
  <rect width="375" height="375"/>
</clipPath>
<g id="surface69" clip-path="url(#clip22)">
<path style=" stroke:none;fill-rule:nonzero;fill:rgb(0%,0%,0%);fill-opacity:1;" d="M 185.167969 247.003906 C 185.167969 243.542969 183.660156 240.734375 181.800781 240.734375 C 179.941406 240.734375 178.433594 243.542969 178.433594 247.003906 C 178.433594 250.46875 179.941406 253.273438 181.800781 253.273438 C 183.660156 253.273438 185.167969 250.46875 185.167969 247.003906 Z M 185.167969 247.003906 "/>
</g>
<mask id="mask22">
  <g filter="url(#alpha)">
<rect x="0" y="0" width="375" height="375" style="fill:rgb(0%,0%,0%);fill-opacity:0.2;stroke:none;"/>
  </g>
</mask>
<clipPath id="clip23">
  <rect width="375" height="375"/>
</clipPath>
<g id="surface72" clip-path="url(#clip23)">
<path style=" stroke:none;fill-rule:nonzero;fill:rgb(0%,0%,0%);fill-opacity:1;" d="M 118.058594 189.585938 C 110.894531 181.335938 103.15625 177.898438 100.898438 178.753906 C 98.640625 179.609375 104.363281 194.25 104.363281 194.25 C 104.363281 194.25 113.585938 196.90625 118.058594 189.585938 Z M 118.058594 189.585938 "/>
</g>
<mask id="mask23">
  <g filter="url(#alpha)">
<rect x="0" y="0" width="375" height="375" style="fill:rgb(0%,0%,0%);fill-opacity:0.4;stroke:none;"/>
  </g>
</mask>
<clipPath id="clip24">
  <rect width="375" height="375"/>
</clipPath>
<g id="surface75" clip-path="url(#clip24)">
<path style=" stroke:none;fill-rule:nonzero;fill:rgb(0%,0%,0%);fill-opacity:1;" d="M 151.777344 176.011719 L 162.808594 176.011719 C 162.808594 176.011719 160.410156 173.371094 152.265625 172.566406 C 147.652344 172.191406 143.011719 172.445312 138.464844 173.316406 C 138.464844 173.316406 147.554688 173.113281 151.777344 176.011719 Z M 151.777344 176.011719 "/>
</g>
</defs>
<g id="surface1">
<path style=" stroke:none;fill-rule:nonzero;fill:rgb(92.156863%,92.156863%,92.156863%);fill-opacity:1;" d="M 177.75 253.351562 L 32.933594 253.351562 C 30.570312 253.347656 28.65625 251.429688 28.65625 249.066406 L 28.65625 45.496094 C 28.679688 43.148438 30.585938 41.253906 32.933594 41.25 L 177.75 41.25 C 180.113281 41.25 182.03125 43.167969 182.03125 45.53125 L 182.03125 249.066406 C 182.03125 251.433594 180.113281 253.351562 177.75 253.351562 Z M 32.933594 41.398438 C 30.671875 41.402344 28.84375 43.234375 28.84375 45.496094 L 28.84375 249.066406 C 28.84375 251.328125 30.671875 253.160156 32.933594 253.164062 L 177.75 253.164062 C 180.011719 253.160156 181.839844 251.328125 181.84375 249.066406 L 181.84375 45.496094 C 181.839844 43.234375 180.011719 41.402344 177.75 41.398438 Z M 32.933594 41.398438 "/>
<path style=" stroke:none;fill-rule:nonzero;fill:rgb(92.156863%,92.156863%,92.156863%);fill-opacity:1;" d="M 339.984375 253.351562 L 195.15625 253.351562 C 192.792969 253.347656 190.878906 251.429688 190.875 249.066406 L 190.875 45.496094 C 190.898438 43.144531 192.808594 41.253906 195.15625 41.25 L 339.984375 41.25 C 342.328125 41.257812 344.230469 43.148438 344.25 45.496094 L 344.25 249.066406 C 344.25 251.425781 342.34375 253.339844 339.984375 253.351562 Z M 195.15625 41.398438 C 192.898438 41.402344 191.066406 43.234375 191.0625 45.496094 L 191.0625 249.066406 C 191.066406 251.328125 192.898438 253.160156 195.15625 253.164062 L 339.984375 253.164062 C 342.242188 253.160156 344.074219 251.328125 344.078125 249.066406 L 344.078125 45.496094 C 344.074219 43.234375 342.242188 41.402344 339.984375 41.398438 Z M 195.15625 41.398438 "/>
<path style=" stroke:none;fill-rule:nonzero;fill:rgb(90.196078%,90.196078%,90.196078%);fill-opacity:1;" d="M 285.050781 192.480469 L 312.988281 192.480469 L 312.988281 286.800781 L 285.050781 286.800781 Z M 285.050781 192.480469 "/>
<path style=" stroke:none;fill-rule:nonzero;fill:rgb(94.117647%,94.117647%,94.117647%);fill-opacity:1;" d="M 308.347656 286.800781 L 312.988281 286.800781 L 312.988281 278.308594 L 303.464844 278.308594 Z M 308.347656 286.800781 "/>
<path style=" stroke:none;fill-rule:nonzero;fill:rgb(90.196078%,90.196078%,90.196078%);fill-opacity:1;" d="M 171.328125 192.480469 L 199.265625 192.480469 L 199.265625 286.800781 L 171.328125 286.800781 Z M 171.328125 192.480469 "/>
<path style=" stroke:none;fill-rule:nonzero;fill:rgb(94.117647%,94.117647%,94.117647%);fill-opacity:1;" d="M 195.21875 192.480469 L 312.996094 192.480469 L 312.996094 283.539062 L 195.21875 283.539062 Z M 195.21875 192.480469 "/>
<path style=" stroke:none;fill-rule:nonzero;fill:rgb(90.196078%,90.196078%,90.196078%);fill-opacity:1;" d="M 198.824219 196.515625 L 309.390625 196.515625 L 309.390625 221.488281 L 198.824219 221.488281 Z M 198.824219 196.515625 "/>
<path style=" stroke:none;fill-rule:nonzero;fill:rgb(94.117647%,94.117647%,94.117647%);fill-opacity:1;" d="M 259.328125 204.277344 L 248.878906 204.277344 C 244.378906 204.277344 240.007812 201.195312 236.878906 195.757812 L 271.3125 195.757812 C 268.199219 201.195312 263.863281 204.277344 259.328125 204.277344 Z M 259.328125 204.277344 "/>
<path style=" stroke:none;fill-rule:nonzero;fill:rgb(94.117647%,94.117647%,94.117647%);fill-opacity:1;" d="M 199.867188 286.800781 L 195.21875 286.800781 L 195.21875 278.308594 L 204.742188 278.308594 Z M 199.867188 286.800781 "/>
<path style=" stroke:none;fill-rule:nonzero;fill:rgb(90.196078%,90.196078%,90.196078%);fill-opacity:1;" d="M 198.824219 225.523438 L 309.390625 225.523438 L 309.390625 250.5 L 198.824219 250.5 Z M 198.824219 225.523438 "/>
<path style=" stroke:none;fill-rule:nonzero;fill:rgb(94.117647%,94.117647%,94.117647%);fill-opacity:1;" d="M 259.328125 233.25 L 248.878906 233.25 C 244.378906 233.25 240.007812 230.175781 236.878906 224.730469 L 271.3125 224.730469 C 268.199219 230.203125 263.863281 233.25 259.328125 233.25 Z M 259.328125 233.25 "/>
<path style=" stroke:none;fill-rule:nonzero;fill:rgb(90.196078%,90.196078%,90.196078%);fill-opacity:1;" d="M 198.824219 254.535156 L 309.390625 254.535156 L 309.390625 279.511719 L 198.824219 279.511719 Z M 198.824219 254.535156 "/>
<path style=" stroke:none;fill-rule:nonzero;fill:rgb(94.117647%,94.117647%,94.117647%);fill-opacity:1;" d="M 259.328125 262.289062 L 248.878906 262.289062 C 244.378906 262.289062 240.007812 259.207031 236.878906 253.769531 L 271.3125 253.769531 C 268.199219 259.207031 263.863281 262.289062 259.328125 262.289062 Z M 259.328125 262.289062 "/>
<path style=" stroke:none;fill-rule:nonzero;fill:rgb(94.117647%,94.117647%,94.117647%);fill-opacity:1;" d="M 205.074219 70.164062 L 325.71875 70.164062 L 325.71875 128.722656 L 205.074219 128.722656 Z M 205.074219 70.164062 "/>
<path style=" stroke:none;fill-rule:nonzero;fill:rgb(96.078431%,96.078431%,96.078431%);fill-opacity:1;" d="M 207.105469 70.164062 L 330.066406 70.164062 L 330.066406 128.722656 L 207.105469 128.722656 Z M 207.105469 70.164062 "/>
<path style=" stroke:none;fill-rule:nonzero;fill:rgb(100%,100%,100%);fill-opacity:1;" d="M 323.984375 75.039062 L 323.984375 123.855469 L 213.195312 123.855469 L 213.195312 75.039062 Z M 323.984375 75.039062 "/>
<path style=" stroke:none;fill-rule:nonzero;fill:rgb(94.117647%,94.117647%,94.117647%);fill-opacity:1;" d="M 289.171875 171.796875 C 291.34375 149.296875 292.851562 112.710938 291.683594 100.484375 C 291.636719 100.0625 291.414062 99.675781 291.066406 99.425781 C 290.605469 99.089844 289.988281 99.042969 289.480469 99.3125 C 288.972656 99.578125 288.664062 100.113281 288.683594 100.6875 C 288.886719 106.746094 289.125 121.890625 287.835938 148.011719 C 287.191406 161.011719 286.265625 169.914062 286.90625 171.796875 Z M 289.171875 171.796875 "/>
<path style=" stroke:none;fill-rule:nonzero;fill:rgb(94.117647%,94.117647%,94.117647%);fill-opacity:1;" d="M 295.402344 123.34375 C 300.367188 116.953125 310.640625 111.898438 321.171875 111.128906 C 325.304688 110.820312 308.699219 119.0625 301.859375 127.296875 C 296.558594 133.6875 290.609375 144.21875 288.628906 149.960938 C 289.792969 138.105469 290.429688 129.75 295.402344 123.34375 Z M 295.402344 123.34375 "/>
<path style=" stroke:none;fill-rule:nonzero;fill:rgb(94.117647%,94.117647%,94.117647%);fill-opacity:1;" d="M 285 121.964844 C 279.863281 114.808594 267.996094 109.296875 255.15625 108.675781 C 250.117188 108.433594 269.296875 117.421875 276.449219 126.628906 C 282.007812 133.777344 287.699219 145.628906 289.273438 152.128906 C 289.65625 138.644531 290.144531 129.128906 285 121.964844 Z M 285 121.964844 "/>
<path style=" stroke:none;fill-rule:nonzero;fill:rgb(94.117647%,94.117647%,94.117647%);fill-opacity:1;" d="M 295.058594 102.285156 C 298.980469 96.953125 307.640625 92.574219 316.808594 91.679688 C 320.40625 91.328125 306.414062 98.429688 300.984375 105.34375 C 296.761719 110.683594 292.273438 119.421875 290.925781 124.15625 C 291.148438 114.457031 291.140625 107.617188 295.058594 102.285156 Z M 295.058594 102.285156 "/>
<path style=" stroke:none;fill-rule:nonzero;fill:rgb(94.117647%,94.117647%,94.117647%);fill-opacity:1;" d="M 287.160156 103.378906 C 282.800781 97.3125 272.761719 92.65625 261.886719 92.128906 C 257.617188 91.925781 273.886719 99.53125 279.886719 107.332031 C 284.59375 113.386719 289.425781 123.421875 290.753906 128.925781 C 291.097656 117.496094 291.511719 109.441406 287.160156 103.378906 Z M 287.160156 103.378906 "/>
<path style=" stroke:none;fill-rule:nonzero;fill:rgb(94.117647%,94.117647%,94.117647%);fill-opacity:1;" d="M 292.425781 147.40625 C 295.261719 143.386719 301.628906 140.003906 308.429688 139.191406 C 311.101562 138.878906 300.808594 144.390625 296.878906 149.585938 C 293.828125 153.621094 290.625 160.175781 289.695312 163.710938 C 289.703125 156.503906 289.597656 151.425781 292.425781 147.40625 Z M 292.425781 147.40625 "/>
<path style=" stroke:none;fill-rule:nonzero;fill:rgb(94.117647%,94.117647%,94.117647%);fill-opacity:1;" d="M 287.25 145.140625 C 284.789062 141.148438 278.699219 137.78125 271.914062 136.972656 C 269.242188 136.65625 279.082031 142.140625 282.539062 147.292969 C 285.21875 151.296875 287.789062 157.792969 288.390625 161.300781 C 289.125 154.164062 289.738281 149.128906 287.25 145.140625 Z M 287.25 145.140625 "/>
<path style=" stroke:none;fill-rule:nonzero;fill:rgb(90.196078%,90.196078%,90.196078%);fill-opacity:1;" d="M 288.246094 192.480469 C 293.671875 192.480469 298.148438 191.347656 298.453125 185.941406 L 299.363281 170.289062 L 277.140625 170.289062 L 278.046875 185.941406 C 278.355469 191.347656 282.832031 192.480469 288.246094 192.480469 Z M 288.246094 192.480469 "/>
<path style=" stroke:none;fill-rule:nonzero;fill:rgb(94.117647%,94.117647%,94.117647%);fill-opacity:1;" d="M 277.265625 173.851562 L 299.25 173.851562 C 300.140625 173.847656 300.886719 173.175781 300.984375 172.289062 L 301.320312 169.289062 C 301.375 168.796875 301.214844 168.300781 300.882812 167.929688 C 300.550781 167.5625 300.078125 167.347656 299.578125 167.347656 L 276.9375 167.347656 C 276.441406 167.347656 275.96875 167.5625 275.636719 167.929688 C 275.304688 168.300781 275.144531 168.796875 275.199219 169.289062 L 275.527344 172.289062 C 275.625 173.175781 276.375 173.847656 277.265625 173.851562 Z M 277.265625 173.851562 "/>
<path style=" stroke:none;fill-rule:nonzero;fill:rgb(90.196078%,90.196078%,90.196078%);fill-opacity:1;" d="M 206.4375 192.480469 L 191.699219 192.480469 L 196.066406 160.175781 L 206.4375 160.175781 Z M 206.4375 192.480469 "/>
<path style=" stroke:none;fill-rule:nonzero;fill:rgb(94.117647%,94.117647%,94.117647%);fill-opacity:1;" d="M 228.066406 192.480469 L 200.136719 192.480469 L 194.933594 154.671875 L 222.871094 154.671875 Z M 228.066406 192.480469 "/>
<path style=" stroke:none;fill-rule:nonzero;fill:rgb(96.078431%,96.078431%,96.078431%);fill-opacity:1;" d="M 231.796875 192.480469 L 202.734375 192.480469 L 197.535156 154.671875 L 226.597656 154.671875 Z M 231.796875 192.480469 "/>
<path style=" stroke:none;fill-rule:nonzero;fill:rgb(100%,100%,100%);fill-opacity:1;" d="M 205.296875 189.503906 L 200.917969 157.648438 L 224.023438 157.648438 L 228.40625 189.503906 Z M 205.296875 189.503906 "/>
<path style=" stroke:none;fill-rule:nonzero;fill:rgb(96.078431%,96.078431%,96.078431%);fill-opacity:1;" d="M 218.324219 182.152344 L 212.820312 182.152344 C 211.828125 182.152344 210.988281 181.421875 210.855469 180.441406 L 209.039062 167.25 C 208.957031 166.683594 209.128906 166.109375 209.503906 165.675781 C 209.886719 165.246094 210.429688 165 211.003906 165 L 216.511719 165 C 217.5 165 218.335938 165.730469 218.476562 166.710938 L 220.289062 179.902344 C 220.367188 180.46875 220.195312 181.042969 219.820312 181.476562 C 219.441406 181.90625 218.898438 182.152344 218.324219 182.152344 Z M 211.574219 180.335938 C 211.660156 180.945312 212.183594 181.402344 212.796875 181.402344 L 218.300781 181.402344 C 218.660156 181.402344 218.996094 181.25 219.234375 180.984375 C 219.464844 180.710938 219.570312 180.355469 219.523438 180 L 217.710938 166.816406 C 217.625 166.207031 217.101562 165.75 216.488281 165.75 L 210.984375 165.75 C 210.625 165.746094 210.285156 165.898438 210.050781 166.171875 C 209.8125 166.433594 209.707031 166.792969 209.761719 167.144531 Z M 211.574219 180.335938 "/>
<path style=" stroke:none;fill-rule:nonzero;fill:rgb(90.196078%,90.196078%,90.196078%);fill-opacity:1;" d="M 47.339844 68.4375 L 158.625 68.4375 L 158.625 185.871094 L 47.339844 185.871094 Z M 47.339844 68.4375 "/>
<path style=" stroke:none;fill-rule:nonzero;fill:rgb(90.196078%,90.196078%,90.196078%);fill-opacity:1;" d="M 170.558594 64.636719 L 40.140625 64.636719 C 39.847656 64.636719 39.566406 64.753906 39.359375 64.960938 C 39.152344 65.167969 39.035156 65.453125 39.039062 65.746094 C 39.039062 66.355469 39.53125 66.847656 40.140625 66.847656 L 170.558594 66.847656 C 171.167969 66.847656 171.660156 66.355469 171.660156 65.746094 C 171.660156 65.453125 171.546875 65.167969 171.339844 64.960938 C 171.132812 64.753906 170.851562 64.636719 170.558594 64.636719 Z M 170.558594 64.636719 "/>
<path style=" stroke:none;fill-rule:nonzero;fill:rgb(94.117647%,94.117647%,94.117647%);fill-opacity:1;" d="M 49.550781 68.4375 L 163.359375 68.4375 L 163.359375 185.871094 L 49.550781 185.871094 Z M 49.550781 68.4375 "/>
<path style=" stroke:none;fill-rule:nonzero;fill:rgb(98.039216%,98.039216%,98.039216%);fill-opacity:1;" d="M 156.742188 75.050781 L 156.742188 179.265625 L 56.160156 179.265625 L 56.160156 75.050781 Z M 156.742188 75.050781 "/>
<path style=" stroke:none;fill-rule:nonzero;fill:rgb(100%,100%,100%);fill-opacity:1;" d="M 78.988281 179.265625 L 117.796875 75.046875 L 136.109375 75.046875 L 97.3125 179.265625 Z M 78.988281 179.265625 "/>
<path style=" stroke:none;fill-rule:nonzero;fill:rgb(100%,100%,100%);fill-opacity:1;" d="M 101.242188 179.265625 L 140.046875 75.046875 L 147.1875 75.046875 L 108.382812 179.265625 Z M 101.242188 179.265625 "/>
<path style=" stroke:none;fill-rule:nonzero;fill:rgb(90.196078%,90.196078%,90.196078%);fill-opacity:1;" d="M 156.742188 75.046875 L 156.742188 179.257812 L 155.902344 179.257812 L 155.902344 75.046875 Z M 156.742188 75.046875 "/>
<use xlink:href="#surface6" mask="url(#mask0)"/>
<use xlink:href="#surface9" mask="url(#mask1)"/>
<path style=" stroke:none;fill-rule:nonzero;fill:rgb(96.078431%,96.078431%,96.078431%);fill-opacity:1;" d="M 332.917969 312.179688 C 332.917969 307.492188 267.8125 303.691406 187.5 303.691406 C 107.1875 303.691406 42.082031 307.492188 42.082031 312.179688 C 42.082031 316.867188 107.1875 320.671875 187.5 320.671875 C 267.8125 320.671875 332.917969 316.867188 332.917969 312.179688 Z M 332.917969 312.179688 "/>
<path style=" stroke:none;fill-rule:nonzero;fill:rgb(14.901961%,19.607843%,21.960784%);fill-opacity:1;" d="M 213.464844 89.09375 C 208.964844 83.003906 210.007812 77.683594 213.464844 73.859375 C 217.777344 69.058594 224.820312 69.097656 229.515625 71.550781 C 236.863281 75.382812 238.449219 92.175781 226.171875 94.546875 C 221.8125 93.023438 217.570312 91.203125 213.464844 89.09375 Z M 213.464844 89.09375 "/>
<path style=" stroke:none;fill-rule:nonzero;fill:rgb(14.901961%,19.607843%,21.960784%);fill-opacity:1;" d="M 228.082031 72.609375 C 232.582031 69.960938 231.328125 64.824219 235.394531 62.109375 C 241.050781 58.359375 253.238281 59.984375 249.425781 69.359375 C 245.617188 78.734375 259.175781 79.273438 255.238281 88.589844 C 251.300781 97.90625 239.863281 103.589844 236.925781 90.089844 C 234.726562 79.972656 244.066406 66.9375 236.527344 68.339844 C 231.824219 69.210938 230.257812 74.046875 230.257812 74.046875 Z M 228.082031 72.609375 "/>
<path style=" stroke:none;fill-rule:nonzero;fill:rgb(70.980392%,35.686275%,32.156863%);fill-opacity:1;" d="M 216.898438 112.3125 C 216.285156 114.015625 215.617188 115.558594 214.90625 117.15625 C 214.191406 118.753906 213.40625 120.292969 212.578125 121.828125 C 210.917969 125.054688 208.832031 128.046875 206.378906 130.71875 C 205.675781 131.464844 204.90625 132.144531 204.074219 132.75 C 203.253906 133.332031 202.378906 133.835938 201.464844 134.25 C 199.777344 135.003906 198.019531 135.585938 196.214844 135.988281 C 192.796875 136.78125 189.296875 137.160156 185.789062 137.121094 C 184.976562 137.109375 184.296875 136.496094 184.199219 135.6875 C 184.105469 134.878906 184.621094 134.125 185.40625 133.921875 L 185.484375 133.921875 C 188.621094 133.1875 191.707031 132.257812 194.730469 131.136719 C 196.148438 130.609375 197.523438 129.964844 198.839844 129.210938 C 199.425781 128.875 199.984375 128.492188 200.503906 128.0625 C 201.011719 127.640625 201.476562 127.171875 201.898438 126.667969 C 202.867188 125.527344 203.738281 124.308594 204.503906 123.023438 C 205.3125 121.695312 206.09375 120.324219 206.8125 118.890625 C 208.238281 116.054688 209.585938 113.023438 210.75 110.113281 L 210.75 110.070312 C 211.390625 108.386719 213.277344 107.542969 214.960938 108.183594 C 216.644531 108.824219 217.488281 110.710938 216.847656 112.394531 Z M 216.898438 112.3125 "/>
<path style=" stroke:none;fill-rule:nonzero;fill:rgb(14.901961%,19.607843%,21.960784%);fill-opacity:1;" d="M 215.925781 106.761719 C 209.730469 107.46875 206.316406 116.761719 206.316406 116.761719 L 212.664062 125.699219 C 212.664062 125.699219 220.164062 117.203125 220.816406 113.40625 C 221.46875 109.5 220.5 106.230469 215.925781 106.761719 Z M 215.925781 106.761719 "/>
<use xlink:href="#surface12" mask="url(#mask2)"/>
<path style=" stroke:none;fill-rule:nonzero;fill:rgb(70.980392%,35.686275%,32.156863%);fill-opacity:1;" d="M 186.921875 134.25 L 182.25 131.730469 L 182.121094 137.820312 C 182.121094 137.820312 185.242188 138.496094 187.304688 136.828125 Z M 186.921875 134.25 "/>
<path style=" stroke:none;fill-rule:nonzero;fill:rgb(70.980392%,35.686275%,32.156863%);fill-opacity:1;" d="M 177.5625 131.941406 L 178.378906 136.914062 L 182.152344 137.820312 L 182.28125 131.730469 Z M 177.5625 131.941406 "/>
<path style=" stroke:none;fill-rule:nonzero;fill:rgb(25.098039%,48.235294%,100%);fill-opacity:1;" d="M 201.113281 120.984375 L 197.015625 117.621094 L 169.117188 159.539062 L 173.25 162.898438 C 177.960938 166.753906 188.015625 160.5 195.75 148.921875 C 203.484375 137.339844 205.824219 124.835938 201.113281 120.984375 Z M 201.113281 120.984375 "/>
<use xlink:href="#surface15" mask="url(#mask3)"/>
<path style=" stroke:none;fill-rule:nonzero;fill:rgb(97.647059%,70.980392%,0%);fill-opacity:1;" d="M 196.546875 117.28125 C 191.4375 114.046875 181.261719 120.964844 173.816406 132.730469 C 166.375 144.492188 164.484375 156.652344 169.59375 159.886719 C 174.703125 163.117188 184.882812 156.203125 192.324219 144.4375 C 199.769531 132.671875 201.660156 120.515625 196.546875 117.28125 Z M 196.546875 117.28125 "/>
<path style=" stroke:none;fill-rule:nonzero;fill:rgb(100%,100%,100%);fill-opacity:1;" d="M 177.890625 145.453125 L 181.640625 139.800781 C 181.261719 138.640625 181.242188 137.394531 181.589844 136.222656 C 182.019531 134.746094 182.683594 133.351562 183.5625 132.089844 C 184.351562 130.816406 185.386719 129.710938 186.609375 128.835938 C 187.648438 128.144531 188.542969 127.980469 189.269531 128.339844 L 190.183594 126.976562 L 190.980469 127.628906 L 190.078125 129 C 190.574219 129.773438 190.726562 130.714844 190.5 131.601562 C 190.207031 132.925781 189.703125 134.191406 189 135.351562 L 187.3125 134.664062 C 187.835938 133.863281 188.097656 132.917969 188.0625 131.960938 L 184.546875 137.210938 C 185.027344 138.402344 185.128906 139.714844 184.828125 140.960938 C 183.875 143.960938 182.046875 146.605469 179.578125 148.558594 C 178.441406 149.351562 177.425781 149.578125 176.542969 149.242188 L 175.636719 150.609375 L 174.839844 149.953125 L 175.703125 148.65625 C 175.160156 147.753906 175.019531 146.667969 175.320312 145.65625 C 175.726562 143.984375 176.394531 142.386719 177.300781 140.925781 L 179.023438 141.75 C 178.644531 142.425781 178.335938 143.136719 178.109375 143.878906 C 177.945312 144.386719 177.875 144.921875 177.890625 145.453125 Z M 187.328125 131.25 C 186.910156 131.289062 186.515625 131.464844 186.203125 131.746094 C 185.332031 132.464844 184.6875 133.421875 184.351562 134.496094 C 184.195312 134.957031 184.152344 135.445312 184.222656 135.921875 Z M 178.566406 146.25 C 179.035156 146.320312 179.507812 146.175781 179.859375 145.859375 C 180.929688 145.023438 181.714844 143.875 182.109375 142.574219 C 182.257812 142.054688 182.246094 141.5 182.070312 140.984375 Z M 178.566406 146.25 "/>
<use xlink:href="#surface18" mask="url(#mask4)"/>
<path style=" stroke:none;fill-rule:nonzero;fill:rgb(70.980392%,35.686275%,32.156863%);fill-opacity:1;" d="M 250.164062 271.359375 L 243.863281 271.957031 L 240.652344 257.28125 L 246.953125 256.679688 Z M 250.164062 271.359375 "/>
<path style=" stroke:none;fill-rule:nonzero;fill:rgb(70.980392%,35.686275%,32.156863%);fill-opacity:1;" d="M 285.253906 262.28125 L 279.398438 264.578125 L 273.75 250.65625 L 279.609375 248.363281 Z M 285.253906 262.28125 "/>
<path style=" stroke:none;fill-rule:nonzero;fill:rgb(14.901961%,19.607843%,21.960784%);fill-opacity:1;" d="M 277.695312 261.699219 L 284.113281 258.503906 C 284.34375 258.390625 284.621094 258.460938 284.765625 258.667969 L 288.023438 263.386719 C 288.1875 263.632812 288.242188 263.941406 288.164062 264.226562 C 288.085938 264.515625 287.886719 264.753906 287.617188 264.886719 C 285.367188 265.964844 284.378906 266.496094 281.550781 267.886719 C 279.808594 268.746094 275.933594 270.78125 273.53125 271.972656 C 271.132812 273.164062 269.828125 270.855469 270.71875 270.140625 C 274.71875 266.953125 276.039062 264.546875 276.914062 262.53125 C 277.070312 262.167969 277.34375 261.875 277.695312 261.699219 Z M 277.695312 261.699219 "/>
<path style=" stroke:none;fill-rule:nonzero;fill:rgb(14.901961%,19.607843%,21.960784%);fill-opacity:1;" d="M 242.632812 268.6875 L 250.207031 268.6875 C 250.484375 268.6875 250.730469 268.875 250.800781 269.144531 L 252.449219 275.144531 C 252.535156 275.433594 252.476562 275.742188 252.292969 275.980469 C 252.109375 276.214844 251.828125 276.351562 251.527344 276.34375 C 248.878906 276.300781 247.613281 276.34375 244.28125 276.34375 L 234.113281 276.34375 C 231.34375 276.34375 230.738281 273.539062 231.863281 273.292969 C 237 272.152344 239.960938 270.585938 241.546875 269.09375 C 241.839844 268.820312 242.230469 268.675781 242.632812 268.6875 Z M 242.632812 268.6875 "/>
<use xlink:href="#surface21" mask="url(#mask5)"/>
<use xlink:href="#surface24" mask="url(#mask6)"/>
<path style=" stroke:none;fill-rule:nonzero;fill:rgb(14.901961%,19.607843%,21.960784%);fill-opacity:1;" d="M 235.15625 100.425781 C 240.164062 99.847656 243.40625 102.234375 243.628906 107.234375 C 244.289062 124.867188 246.238281 128.925781 249.1875 138.046875 L 224.203125 144.996094 C 215.324219 125.765625 212.203125 116.699219 211.214844 112.433594 C 210.792969 110.394531 211.78125 108.324219 213.628906 107.371094 C 220.28125 103.664062 227.59375 101.304688 235.15625 100.425781 Z M 235.15625 100.425781 "/>
<path style=" stroke:none;fill-rule:nonzero;fill:rgb(70.980392%,35.686275%,32.156863%);fill-opacity:1;" d="M 227.558594 88.605469 C 227.859375 92.453125 228.855469 99.105469 232.058594 100.867188 C 232.058594 100.867188 231.585938 103.246094 223.304688 111.171875 C 218.199219 106.867188 220.808594 103.980469 220.808594 103.980469 C 224.609375 101.871094 223.71875 99.128906 222.21875 96.480469 Z M 227.558594 88.605469 "/>
<use xlink:href="#surface27" mask="url(#mask7)"/>
<path style=" stroke:none;fill-rule:nonzero;fill:rgb(70.980392%,35.686275%,32.156863%);fill-opacity:1;" d="M 229.027344 81.335938 C 230.25 87.554688 230.902344 90.15625 228.636719 94.085938 C 225.226562 100.027344 217.320312 100.175781 214.261719 94.449219 C 211.507812 89.296875 209.960938 79.996094 215.316406 75.988281 C 217.710938 74.1875 220.871094 73.75 223.664062 74.839844 C 226.457031 75.929688 228.488281 78.386719 229.027344 81.335938 Z M 229.027344 81.335938 "/>
<path style=" stroke:none;fill-rule:nonzero;fill:rgb(70.980392%,35.686275%,32.156863%);fill-opacity:1;" d="M 232.273438 85.125 C 232.460938 86.335938 232.152344 87.570312 231.421875 88.550781 C 230.445312 89.851562 228.976562 89.21875 228.421875 87.800781 C 227.925781 86.511719 227.828125 84.277344 229.207031 83.496094 C 229.820312 83.160156 230.5625 83.15625 231.179688 83.484375 C 231.796875 83.8125 232.210938 84.429688 232.273438 85.125 Z M 232.273438 85.125 "/>
<path style=" stroke:none;fill-rule:nonzero;fill:rgb(14.901961%,19.607843%,21.960784%);fill-opacity:1;" d="M 223.574219 78.046875 C 223.34375 80.421875 225.246094 84.488281 228.824219 85.433594 C 232.53125 81.171875 230.085938 75.328125 226.679688 75.210938 C 223.273438 75.089844 223.574219 78.046875 223.574219 78.046875 Z M 223.574219 78.046875 "/>
<path style=" stroke:none;fill-rule:nonzero;fill:rgb(14.901961%,19.607843%,21.960784%);fill-opacity:1;" d="M 218.578125 71.566406 C 213.113281 71.8125 207.246094 74.25 209.28125 82.816406 C 214.050781 81.816406 227.324219 80.332031 228.34375 76.925781 C 227.003906 72.554688 222.164062 71.398438 218.578125 71.566406 Z M 218.578125 71.566406 "/>
<path style=" stroke:none;fill-rule:nonzero;fill:rgb(97.647059%,70.980392%,0%);fill-opacity:1;" d="M 224.203125 144.996094 C 224.203125 144.996094 222.75 195.457031 226.808594 214.5 C 231.015625 234.316406 240.515625 262.636719 240.515625 262.636719 L 249.441406 262.058594 C 249.441406 262.058594 243.675781 225.03125 241.941406 209.753906 C 239.496094 188.691406 242.535156 139.890625 242.535156 139.890625 Z M 224.203125 144.996094 "/>
<use xlink:href="#surface30" mask="url(#mask8)"/>
<path style=" stroke:none;fill-rule:nonzero;fill:rgb(14.901961%,19.607843%,21.960784%);fill-opacity:1;" d="M 250.574219 262.636719 L 239.828125 263.363281 L 238.335938 258.324219 L 249.96875 257.09375 Z M 250.574219 262.636719 "/>
<path style=" stroke:none;fill-rule:nonzero;fill:rgb(97.647059%,70.980392%,0%);fill-opacity:1;" d="M 233.015625 142.546875 C 233.015625 142.546875 240.621094 184.84375 250.949219 207.609375 C 259.289062 225.988281 274.402344 255.609375 274.402344 255.609375 L 282.601562 252.539062 C 282.601562 252.539062 269.78125 218.917969 265.148438 205.988281 C 253.605469 173.738281 259.898438 154.164062 249.1875 138.046875 Z M 233.015625 142.546875 "/>
<path style=" stroke:none;fill-rule:nonzero;fill:rgb(14.901961%,19.607843%,21.960784%);fill-opacity:1;" d="M 283.566406 253.320312 L 274.109375 256.613281 L 271.417969 251.765625 L 282.675781 248.976562 Z M 283.566406 253.320312 "/>
<path style=" stroke:none;fill-rule:nonzero;fill:rgb(14.901961%,19.607843%,21.960784%);fill-opacity:1;" d="M 249.148438 136.5 L 250.90625 138.425781 C 251.039062 138.578125 250.90625 138.808594 250.589844 138.886719 L 224.390625 146.183594 C 224.167969 146.242188 223.949219 146.183594 223.898438 146.046875 L 223.050781 143.871094 C 222.988281 143.722656 223.148438 143.535156 223.394531 143.46875 L 248.691406 136.425781 C 248.847656 136.363281 249.023438 136.394531 249.148438 136.5 Z M 249.148438 136.5 "/>
<path style=" stroke:none;fill-rule:nonzero;fill:rgb(97.647059%,70.980392%,0%);fill-opacity:1;" d="M 246.539062 140.25 L 247.222656 140.054688 C 247.359375 140.015625 247.441406 139.921875 247.402344 139.835938 L 246.277344 137.023438 C 246.277344 136.941406 246.113281 136.90625 245.976562 136.941406 L 245.296875 137.128906 C 245.160156 137.128906 245.078125 137.265625 245.109375 137.347656 L 246.238281 140.167969 C 246.269531 140.25 246.40625 140.289062 246.539062 140.25 Z M 246.539062 140.25 "/>
<path style=" stroke:none;fill-rule:nonzero;fill:rgb(97.647059%,70.980392%,0%);fill-opacity:1;" d="M 226.363281 145.859375 L 227.046875 145.671875 C 227.175781 145.671875 227.265625 145.539062 227.226562 145.453125 L 226.101562 142.640625 C 226.101562 142.558594 225.929688 142.523438 225.796875 142.558594 L 225.121094 142.746094 C 224.984375 142.746094 224.902344 142.882812 224.933594 142.964844 L 226.058594 145.785156 C 226.09375 145.867188 226.230469 145.898438 226.363281 145.859375 Z M 226.363281 145.859375 "/>
<path style=" stroke:none;fill-rule:nonzero;fill:rgb(97.647059%,70.980392%,0%);fill-opacity:1;" d="M 236.453125 143.054688 L 237.136719 142.867188 C 237.269531 142.828125 237.351562 142.734375 237.316406 142.648438 L 236.191406 139.828125 C 236.191406 139.746094 236.015625 139.710938 235.882812 139.746094 L 235.207031 139.933594 C 235.074219 139.933594 234.988281 140.078125 235.019531 140.160156 L 236.152344 142.972656 C 236.183594 143.054688 236.316406 143.09375 236.453125 143.054688 Z M 236.453125 143.054688 "/>
<path style=" stroke:none;fill-rule:nonzero;fill:rgb(14.901961%,19.607843%,21.960784%);fill-opacity:1;" d="M 220.191406 85.5 C 220.320312 86.003906 220.191406 86.476562 219.839844 86.558594 C 219.488281 86.640625 219.140625 86.308594 219.015625 85.808594 C 218.886719 85.304688 219.015625 84.839844 219.367188 84.75 C 219.71875 84.660156 220.066406 84.984375 220.191406 85.5 Z M 220.191406 85.5 "/>
<path style=" stroke:none;fill-rule:nonzero;fill:rgb(14.901961%,19.607843%,21.960784%);fill-opacity:1;" d="M 214.558594 86.953125 C 214.695312 87.449219 214.558594 87.921875 214.207031 88.011719 C 213.855469 88.101562 213.511719 87.757812 213.382812 87.261719 C 213.253906 86.765625 213.382812 86.289062 213.734375 86.203125 C 214.085938 86.121094 214.433594 86.453125 214.558594 86.953125 Z M 214.558594 86.953125 "/>
<path style=" stroke:none;fill-rule:nonzero;fill:rgb(14.901961%,19.607843%,21.960784%);fill-opacity:1;" d="M 213.886719 86.199219 L 212.601562 86.160156 C 212.601562 86.160156 213.457031 86.941406 213.886719 86.199219 Z M 213.886719 86.199219 "/>
<path style=" stroke:none;fill-rule:nonzero;fill:rgb(62.745098%,15.294118%,14.117647%);fill-opacity:1;" d="M 216.277344 87.421875 C 216.128906 88.671875 215.8125 89.898438 215.332031 91.066406 C 215.941406 91.296875 216.625 91.25 217.191406 90.929688 Z M 216.277344 87.421875 "/>
<path style=" stroke:none;fill-rule:nonzero;fill:rgb(14.901961%,19.607843%,21.960784%);fill-opacity:1;" d="M 219.398438 92.4375 C 219.339844 92.425781 219.292969 92.382812 219.277344 92.324219 C 219.265625 92.289062 219.269531 92.246094 219.289062 92.210938 C 219.3125 92.179688 219.34375 92.152344 219.382812 92.144531 C 220.648438 91.84375 221.691406 90.957031 222.195312 89.761719 C 222.207031 89.71875 222.234375 89.6875 222.273438 89.667969 C 222.308594 89.652344 222.351562 89.648438 222.390625 89.664062 C 222.464844 89.691406 222.507812 89.773438 222.488281 89.851562 C 221.964844 91.144531 220.847656 92.109375 219.488281 92.4375 C 219.457031 92.445312 219.425781 92.445312 219.398438 92.4375 Z M 219.398438 92.4375 "/>
<path style=" stroke:none;fill-rule:nonzero;fill:rgb(14.901961%,19.607843%,21.960784%);fill-opacity:1;" d="M 221.296875 83.25 C 221.242188 83.242188 221.191406 83.21875 221.152344 83.183594 C 220.5625 82.6875 219.769531 82.507812 219.023438 82.703125 C 218.863281 82.753906 218.695312 82.664062 218.640625 82.507812 C 218.613281 82.433594 218.617188 82.347656 218.652344 82.277344 C 218.6875 82.203125 218.75 82.148438 218.828125 82.125 C 219.769531 81.871094 220.777344 82.085938 221.527344 82.710938 C 221.628906 82.796875 221.664062 82.941406 221.609375 83.066406 C 221.558594 83.191406 221.429688 83.265625 221.296875 83.25 Z M 221.296875 83.25 "/>
<path style=" stroke:none;fill-rule:nonzero;fill:rgb(14.901961%,19.607843%,21.960784%);fill-opacity:1;" d="M 211.207031 85.035156 L 211.148438 85.035156 C 211.070312 85.007812 211.007812 84.953125 210.972656 84.882812 C 210.9375 84.8125 210.933594 84.726562 210.960938 84.652344 C 211.257812 83.722656 211.988281 82.996094 212.917969 82.703125 C 212.996094 82.683594 213.078125 82.695312 213.148438 82.734375 C 213.214844 82.773438 213.265625 82.84375 213.285156 82.921875 C 213.324219 83.082031 213.222656 83.246094 213.058594 83.289062 C 212.335938 83.535156 211.777344 84.117188 211.558594 84.847656 C 211.507812 84.992188 211.355469 85.070312 211.207031 85.035156 Z M 211.207031 85.035156 "/>
<path style=" stroke:none;fill-rule:nonzero;fill:rgb(70.980392%,35.686275%,32.156863%);fill-opacity:1;" d="M 240.5625 112.230469 C 238.613281 116.25 236.585938 120.195312 234.449219 124.117188 C 233.386719 126.082031 232.320312 128.046875 231.1875 129.984375 C 230.054688 131.917969 228.9375 133.859375 227.59375 135.800781 C 227.289062 136.28125 226.90625 136.792969 226.546875 137.300781 L 226.410156 137.484375 L 226.34375 137.578125 L 226.230469 137.722656 C 226.074219 137.917969 225.914062 138.082031 225.757812 138.246094 C 225.472656 138.539062 225.164062 138.804688 224.835938 139.050781 C 223.753906 139.839844 222.582031 140.492188 221.339844 140.992188 C 219.148438 141.875 216.894531 142.585938 214.589844 143.109375 C 210.179688 144.125 205.703125 144.824219 201.195312 145.199219 L 200.683594 142.003906 C 202.777344 141.449219 204.90625 140.863281 207 140.257812 C 209.09375 139.648438 211.171875 139.003906 213.195312 138.300781 C 215.167969 137.636719 217.09375 136.84375 218.960938 135.929688 C 219.75 135.542969 220.492188 135.066406 221.175781 134.511719 C 221.285156 134.417969 221.390625 134.316406 221.484375 134.203125 C 221.507812 134.171875 221.535156 134.136719 221.558594 134.101562 L 221.722656 133.84375 C 221.984375 133.433594 222.253906 133.042969 222.523438 132.578125 C 223.589844 130.785156 224.640625 128.863281 225.660156 126.945312 L 228.699219 121.117188 L 234.699219 109.359375 Z M 240.5625 112.230469 "/>
<path style=" stroke:none;fill-rule:nonzero;fill:rgb(70.980392%,35.686275%,32.156863%);fill-opacity:1;" d="M 202.738281 142.035156 L 198.324219 140.339844 L 198.699219 146.574219 C 198.699219 146.574219 202.171875 146.574219 203.773438 144.433594 Z M 202.738281 142.035156 "/>
<path style=" stroke:none;fill-rule:nonzero;fill:rgb(70.980392%,35.686275%,32.156863%);fill-opacity:1;" d="M 194.851562 140.519531 L 193.90625 145.101562 L 198.699219 146.574219 L 198.324219 140.339844 Z M 194.851562 140.519531 "/>
<path style=" stroke:none;fill-rule:nonzero;fill:rgb(14.901961%,19.607843%,21.960784%);fill-opacity:1;" d="M 235.125 103.648438 C 232.65625 104.78125 229.792969 115.035156 229.792969 115.035156 L 240.480469 116.25 C 240.480469 116.25 242.550781 111.269531 242.128906 108.710938 C 241.5 104.625 237.9375 102.359375 235.125 103.648438 Z M 235.125 103.648438 "/>
<path style=" stroke:none;fill-rule:nonzero;fill:rgb(97.647059%,70.980392%,0%);fill-opacity:1;" d="M 274.5 263.527344 C 274.457031 263.457031 274.425781 263.382812 274.402344 263.300781 C 274.332031 263.132812 274.359375 262.9375 274.476562 262.792969 C 274.996094 262.164062 277.289062 262.417969 277.546875 262.449219 C 277.605469 262.453125 277.65625 262.492188 277.671875 262.550781 C 277.691406 262.609375 277.675781 262.671875 277.628906 262.710938 C 276.976562 263.257812 275.761719 264.136719 274.980469 263.910156 C 274.773438 263.855469 274.597656 263.71875 274.5 263.527344 Z M 277.148438 262.710938 C 276.226562 262.636719 274.988281 262.648438 274.710938 262.980469 C 274.667969 263.050781 274.667969 263.140625 274.710938 263.210938 C 274.753906 263.40625 274.898438 263.5625 275.085938 263.625 C 275.496094 263.746094 276.261719 263.40625 277.164062 262.710938 Z M 277.148438 262.710938 "/>
<path style=" stroke:none;fill-rule:nonzero;fill:rgb(97.647059%,70.980392%,0%);fill-opacity:1;" d="M 275.0625 261.457031 C 275.035156 261.402344 275.011719 261.34375 274.996094 261.285156 C 274.929688 261.046875 275.039062 260.792969 275.257812 260.675781 C 275.453125 260.546875 275.699219 260.511719 275.925781 260.578125 C 276.816406 260.820312 277.640625 262.460938 277.679688 262.53125 C 277.707031 262.578125 277.707031 262.632812 277.679688 262.679688 C 277.648438 262.722656 277.597656 262.75 277.546875 262.746094 C 276.589844 262.625 275.710938 262.167969 275.0625 261.457031 Z M 277.246094 262.363281 C 276.9375 261.824219 276.367188 261.007812 275.84375 260.863281 C 275.703125 260.820312 275.550781 260.84375 275.429688 260.925781 C 275.265625 261.03125 275.265625 261.128906 275.289062 261.195312 C 275.398438 261.628906 276.511719 262.238281 277.265625 262.394531 Z M 277.246094 262.363281 "/>
<path style=" stroke:none;fill-rule:nonzero;fill:rgb(97.647059%,70.980392%,0%);fill-opacity:1;" d="M 239.25 269.933594 C 238.726562 269.976562 238.199219 269.851562 237.75 269.578125 C 237.507812 269.40625 237.367188 269.128906 237.367188 268.828125 C 237.347656 268.667969 237.417969 268.507812 237.554688 268.417969 C 238.238281 267.953125 240.816406 269.121094 241.304688 269.363281 C 241.367188 269.390625 241.402344 269.453125 241.394531 269.519531 C 241.386719 269.582031 241.339844 269.636719 241.273438 269.648438 C 240.613281 269.8125 239.933594 269.910156 239.25 269.933594 Z M 238.042969 268.628906 C 237.9375 268.621094 237.835938 268.644531 237.742188 268.695312 C 237.742188 268.695312 237.683594 268.746094 237.691406 268.835938 C 237.695312 269.035156 237.792969 269.222656 237.953125 269.339844 C 238.394531 269.675781 239.453125 269.722656 240.800781 269.46875 C 239.9375 269.050781 239.015625 268.765625 238.066406 268.628906 Z M 238.042969 268.628906 "/>
<path style=" stroke:none;fill-rule:nonzero;fill:rgb(97.647059%,70.980392%,0%);fill-opacity:1;" d="M 241.3125 269.675781 L 241.253906 269.675781 C 240.398438 269.332031 238.671875 267.945312 238.769531 267.234375 C 238.769531 267.074219 238.898438 266.878906 239.289062 266.835938 C 240.789062 266.65625 241.433594 269.390625 241.460938 269.503906 C 241.472656 269.5625 241.453125 269.617188 241.410156 269.65625 C 241.378906 269.671875 241.347656 269.679688 241.3125 269.675781 Z M 239.429688 267.113281 L 239.324219 267.113281 C 239.167969 267.113281 239.085938 267.179688 239.070312 267.253906 C 239.015625 267.667969 240.210938 268.753906 241.078125 269.234375 C 240.878906 268.582031 240.335938 267.113281 239.429688 267.113281 Z M 239.429688 267.113281 "/>
<path style=" stroke:none;fill-rule:nonzero;fill:rgb(14.901961%,19.607843%,21.960784%);fill-opacity:1;" d="M 219.515625 84.75 L 218.226562 84.75 C 218.226562 84.75 219.089844 85.5 219.515625 84.75 Z M 219.515625 84.75 "/>
<path style=" stroke:none;fill-rule:nonzero;fill:rgb(14.901961%,19.607843%,21.960784%);fill-opacity:1;" d="M 222.464844 276.351562 L 263.503906 276.351562 C 264.09375 276.351562 264.570312 276.828125 264.570312 277.417969 L 264.570312 280.882812 L 221.40625 280.882812 L 221.40625 277.417969 C 221.40625 276.832031 221.878906 276.355469 222.464844 276.351562 Z M 222.464844 276.351562 "/>
<path style=" stroke:none;fill-rule:nonzero;fill:rgb(14.901961%,19.607843%,21.960784%);fill-opacity:1;" d="M 221.773438 292.351562 L 264.9375 292.351562 L 264.9375 296.871094 L 221.773438 296.871094 Z M 221.773438 292.351562 "/>
<use xlink:href="#surface33" mask="url(#mask9)"/>
<path style=" stroke:none;fill-rule:nonzero;fill:rgb(14.901961%,19.607843%,21.960784%);fill-opacity:1;" d="M 240.554688 280.875 L 235.703125 311.25 C 235.617188 311.765625 235.175781 312.144531 234.652344 312.148438 L 232.273438 312.148438 C 231.964844 312.148438 231.667969 312.011719 231.46875 311.777344 C 231.265625 311.539062 231.175781 311.226562 231.226562 310.921875 L 236.03125 280.84375 Z M 240.554688 280.875 "/>
<use xlink:href="#surface36" mask="url(#mask10)"/>
<path style=" stroke:none;fill-rule:nonzero;fill:rgb(14.901961%,19.607843%,21.960784%);fill-opacity:1;" d="M 225.929688 280.875 L 221.078125 311.25 C 220.992188 311.765625 220.550781 312.144531 220.027344 312.148438 L 217.648438 312.148438 C 217.339844 312.148438 217.042969 312.011719 216.84375 311.777344 C 216.640625 311.539062 216.550781 311.226562 216.601562 310.921875 L 221.40625 280.84375 Z M 225.929688 280.875 "/>
<path style=" stroke:none;fill-rule:nonzero;fill:rgb(14.901961%,19.607843%,21.960784%);fill-opacity:1;" d="M 269.371094 310.949219 L 264.570312 280.875 L 260.070312 280.875 L 264.898438 311.25 C 264.980469 311.765625 265.425781 312.148438 265.949219 312.148438 L 268.320312 312.148438 C 268.625 312.148438 268.914062 312.015625 269.113281 311.785156 C 269.316406 311.558594 269.410156 311.253906 269.371094 310.949219 Z M 269.371094 310.949219 "/>
<use xlink:href="#surface39" mask="url(#mask11)"/>
<path style=" stroke:none;fill-rule:nonzero;fill:rgb(14.901961%,19.607843%,21.960784%);fill-opacity:1;" d="M 254.746094 310.949219 L 249.945312 280.875 L 245.445312 280.875 L 250.273438 311.25 C 250.355469 311.765625 250.800781 312.148438 251.324219 312.148438 L 253.695312 312.148438 C 254 312.148438 254.289062 312.015625 254.488281 311.785156 C 254.691406 311.558594 254.785156 311.253906 254.746094 310.949219 Z M 254.746094 310.949219 "/>
<use xlink:href="#surface42" mask="url(#mask12)"/>
<use xlink:href="#surface45" mask="url(#mask13)"/>
<path style=" stroke:none;fill-rule:nonzero;fill:rgb(97.647059%,70.980392%,0%);fill-opacity:1;" d="M 109.335938 308.046875 L 115.34375 297.023438 L 93.855469 278.191406 L 92.175781 308.046875 Z M 109.335938 308.046875 "/>
<use xlink:href="#surface48" mask="url(#mask14)"/>
<path style=" stroke:none;fill-rule:nonzero;fill:rgb(97.647059%,70.980392%,0%);fill-opacity:1;" d="M 183.390625 182.414062 C 195.441406 174.164062 205.539062 175.011719 208.890625 177.421875 C 212.242188 179.828125 201.59375 198.113281 201.59375 198.113281 C 193.535156 195.769531 186.890625 190.042969 183.390625 182.414062 Z M 183.390625 182.414062 "/>
<use xlink:href="#surface51" mask="url(#mask15)"/>
<path style=" stroke:none;fill-rule:nonzero;fill:rgb(97.647059%,70.980392%,0%);fill-opacity:1;" d="M 78.667969 208.273438 L 77.984375 207.929688 C 79.871094 204.222656 82.085938 200.691406 84.609375 197.386719 L 85.214844 197.851562 C 82.726562 201.121094 80.535156 204.609375 78.667969 208.273438 Z M 78.667969 208.273438 "/>
<path style=" stroke:none;fill-rule:nonzero;fill:rgb(97.647059%,70.980392%,0%);fill-opacity:1;" d="M 75.097656 216.75 L 74.347656 216.503906 C 74.917969 214.828125 75.5625 213.15625 76.265625 211.539062 L 76.972656 211.84375 C 76.296875 213.433594 75.660156 215.085938 75.097656 216.75 Z M 75.097656 216.75 "/>
<path style=" stroke:none;fill-rule:nonzero;fill:rgb(97.647059%,70.980392%,0%);fill-opacity:1;" d="M 215.332031 237.5625 C 215.332031 274.800781 187.296875 304.980469 146.828125 304.980469 C 106.359375 304.980469 73.550781 274.800781 73.550781 237.5625 C 73.550781 200.324219 106.359375 170.144531 146.828125 170.144531 C 187.296875 170.144531 215.332031 200.324219 215.332031 237.5625 Z M 215.332031 237.5625 "/>
<use xlink:href="#surface54" mask="url(#mask16)"/>
<path style=" stroke:none;fill-rule:nonzero;fill:rgb(97.647059%,70.980392%,0%);fill-opacity:1;" d="M 132.621094 312.179688 L 141.050781 297.023438 L 114.089844 287.167969 L 110.640625 312.179688 Z M 132.621094 312.179688 "/>
<path style=" stroke:none;fill-rule:nonzero;fill:rgb(97.647059%,70.980392%,0%);fill-opacity:1;" d="M 171.890625 312.179688 L 164.585938 297.023438 L 190.261719 287.167969 L 191.960938 312.179688 Z M 171.890625 312.179688 "/>
<use xlink:href="#surface57" mask="url(#mask17)"/>
<use xlink:href="#surface60" mask="url(#mask18)"/>
<use xlink:href="#surface63" mask="url(#mask19)"/>
<use xlink:href="#surface66" mask="url(#mask20)"/>
<use xlink:href="#surface69" mask="url(#mask21)"/>
<path style=" stroke:none;fill-rule:nonzero;fill:rgb(97.647059%,70.980392%,0%);fill-opacity:1;" d="M 125.40625 181.800781 C 112.351562 170.984375 100.65625 170.144531 96.621094 172.109375 C 92.585938 174.074219 103.078125 195.277344 103.078125 195.277344 C 103.078125 195.277344 117.40625 194.4375 125.40625 181.800781 Z M 125.40625 181.800781 "/>
<use xlink:href="#surface72" mask="url(#mask22)"/>
<use xlink:href="#surface75" mask="url(#mask23)"/>
</g>
</svg>
